Coordinates
version=1
nRows=10
nColumns=40
inDegrees=yes

Units are S.I. units (second, meters, Newtons, ...)
Angles are in degrees.

endheader
time	pelvis_tilt	pelvis_list	pelvis_rotation	pelvis_tx	pelvis_ty	pelvis_tz	hip_flexion_r	hip_adduction_r	hip_rotation_r	knee_angle_r	knee_angle_r_beta	ankle_angle_r	subtalar_angle_r	mtp_angle_r	hip_flexion_l	hip_adduction_l	hip_rotation_l	knee_angle_l	knee_angle_l_beta	ankle_angle_l	subtalar_angle_l	mtp_angle_l	lumbar_extension	lumbar_bending	lumbar_rotation	arm_flex_r	arm_add_r	arm_rot_r	elbow_flex_r	pro_sup_r	wrist_flex_r	wrist_dev_r	arm_flex_l	arm_add_l	arm_rot_l	elbow_flex_l	pro_sup_l	wrist_flex_l	wrist_dev_l
      7.25500000	     -4.89817372	     -3.62923387	     -4.76290691	      0.99378715	      0.92757765	      0.44634413	     29.55216855	     -4.04835881	    -13.42447343	     19.70023027	     19.70023027	      3.76526846	      2.14711554	      5.21267801	      2.47570208	     -4.10806121	    -13.17948850	     12.18260989	     12.18260989	     15.32619227	     -5.68946072	     -6.84837114	    -11.56832019	      5.15262410	      3.12081228	     -7.44436052	    -13.47280573	     -9.54432276	     21.09610324	     47.36172365	      0.00000000	      0.00000000	     23.45826991	    -19.85564530	     -1.58415900	     90.99516753	     47.55596627	      0.00000000	      0.00000000
      7.26635714	     -4.86892315	     -3.30700604	     -4.72344182	      0.99486213	      0.92577614	      0.44789760	     28.74677796	     -3.91333718	    -14.33535682	     17.97866778	     17.97866778	      3.82605629	      3.44773088	      6.11897360	      1.60752310	     -3.77384657	    -13.34514533	     11.78407353	     11.78407353	     15.75421437	     -5.27001898	     -7.13857634	    -11.32226426	      4.82446181	      3.11422604	     -9.12968825	    -13.32926392	     -9.67662127	     21.00694678	     47.35487654	      0.00000000	      0.00000000	     23.42914260	    -19.95776146	     -1.89321070	     92.92722218	     47.62450915	      0.00000000	      0.00000000
      7.27771429	     -4.76687616	     -3.07195343	     -4.65903598	      0.99613388	      0.92403745	      0.44955901	     27.98108538	     -3.77204759	    -15.18899700	     16.88493296	     16.88493296	      3.85577199	      4.60653028	      6.77865506	      0.70378195	     -3.55816445	    -13.47358711	     11.51719483	     11.51719483	     16.26483402	     -4.81242988	     -7.29303622	    -11.14219197	      4.59244552	      3.07204167	    -10.87946402	    -13.20689124	     -9.81623507	     21.31359600	     47.32653126	      0.00000000	      0.00000000	     23.15545705	    -20.03433975	     -2.29654363	     95.18121189	     47.70847125	      0.00000000	      0.00000000
      7.28907143	     -4.79388976	     -2.90086435	     -4.59520066	      0.99729169	      0.92215692	      0.45146553	     27.45977607	     -3.56958952	    -15.69957908	     16.25702698	     16.25702698	      3.63214733	      5.17495555	      6.92290454	      0.06356152	     -3.46246324	    -13.51262550	     11.47953246	     11.47953246	     16.85738940	     -4.55613220	     -7.25178645	    -10.83202768	      4.42183655	      3.07743001	    -12.53214042	    -13.04240052	     -9.88279196	     21.59314935	     47.29355198	      0.00000000	      0.00000000	     22.86398167	    -20.05020540	     -2.71182200	     96.98599495	     47.78192471	      0.00000000	      0.00000000
      7.30042857	     -4.77085172	     -2.82675912	     -4.52102240	      0.99838828	      0.92037912	      0.45350258	     27.05002943	     -3.35210521	    -15.95523800	     16.20524235	     16.20524235	      3.25210608	      5.33337759	      6.31364752	     -0.49535687	     -3.51768120	    -13.49441618	     11.72942278	     11.72942278	     17.64074919	     -4.30677534	     -6.85856182	    -10.66218829	      4.34389550	      3.05122836	    -14.19367894	    -12.91037633	     -9.91774735	     22.30687809	     47.23357807	      0.00000000	      0.00000000	     22.35316068	    -19.96232452	     -3.25537526	     99.12190044	     47.87430456	      0.00000000	      0.00000000
      7.31178571	     -4.75766138	     -2.81784511	     -4.41230484	      0.99948569	      0.91872392	      0.45570504	     26.62366031	     -3.06269462	    -15.83939857	     16.22409452	     16.22409452	      1.87894143	      4.74970775	      2.52878810	     -0.82298678	     -3.76150165	    -13.74828861	     12.49831000	     12.49831000	     19.28645749	     -3.38586274	     -4.74280780	    -10.45437504	      4.37536648	      2.58053328	    -15.95475487	    -12.99884432	     -8.86779815	     24.38959736	     46.97671847	      0.00000000	      0.00000000	     21.39732919	    -20.02266823	     -4.45568452	    100.81908549	     48.07092701	      0.00000000	      0.00000000
      7.32314286	     -4.80857859	     -2.88393504	     -4.30644358	      1.00032401	      0.91723181	      0.45800054	     26.52376869	     -2.80713842	    -15.55746239	     16.94189068	     16.94189068	      1.69060632	      3.95995060	      1.83532833	     -1.06867274	     -4.03242478	    -13.48434997	     13.13872512	     13.13872512	     19.85471019	     -3.73821043	     -4.53567935	    -10.24117600	      4.43938944	      2.80681053	    -17.10272490	    -12.79816991	     -8.69007049	     24.25530250	     46.94789451	      0.00000000	      0.00000000	     21.09717703	    -19.80448736	     -4.58732187	    101.98391876	     48.11612678	      0.00000000	      0.00000000
      7.33450000	     -4.83650497	     -3.03439716	     -4.19789506	      1.00101871	      0.91600674	      0.46042522	     26.49575839	     -2.50240172	    -15.04495554	     17.92654897	     17.92654897	      1.55525311	      2.78843139	      0.67516827	     -1.17556850	     -4.44374620	    -13.17539035	     14.08878881	     14.08878881	     20.51619881	     -4.13004633	     -4.00408176	    -10.09296431	      4.60906644	      2.86341025	    -18.10167450	    -12.63143237	     -8.56981758	     24.43347548	     46.91058925	      0.00000000	      0.00000000	     20.43063118	    -19.58082510	     -4.99869424	    103.14483330	     48.17858980	      0.00000000	      0.00000000
      7.34585714	     -4.83154801	     -3.24822813	     -4.09425056	      1.00158486	      0.91514624	      0.46294258	     26.46452059	     -2.16022543	    -14.44347800	     19.01952343	     19.01952343	      1.54384842	      1.51996643	     -0.46926333	     -1.17804235	     -4.96441014	    -12.85683046	     15.29280983	     15.29280983	     21.14938473	     -4.59226474	     -3.39998252	    -10.04770183	      4.84184650	      2.87468208	    -18.82275254	    -12.48894470	     -8.46908891	     24.66420096	     46.87625620	      0.00000000	      0.00000000	     19.61817500	    -19.29357519	     -5.51760040	    104.12267411	     48.24255695	      0.00000000	      0.00000000
      7.35721429	     -4.71096690	     -3.52911521	     -4.01636115	      1.00211389	      0.91482334	      0.46558222	     26.28160812	     -1.79108885	    -13.96774248	     20.13111012	     20.13111012	      1.86332218	      0.57204399	     -1.17602417	     -1.24652229	     -5.56964652	    -12.52490663	     16.59378850	     16.59378850	     21.52171272	     -5.16007812	     -3.13319624	    -10.16964576	      5.09992409	      2.94801854	    -19.27930454	    -12.36856454	     -8.41172243	     24.71653398	     46.86012065	      0.00000000	      0.00000000	     18.84383718	    -18.97334501	     -5.84389064	    104.66209041	     48.27843756	      0.00000000	      0.00000000
